<svg width="16" height="16" viewBox="0 0 16 16" fill="none" xmlns="http://www.w3.org/2000/svg">
<path d="M0.5 8.33328C0.5 7.69077 1.02414 7.16663 1.66666 7.16663H4.16666V14.7185C4.01423 14.7923 3.84506 14.8333 3.66666 14.8333H1.66666C1.02414 14.8333 0.5 14.3091 0.5 13.6666V8.33328Z" fill="white" stroke="#959595"/>
<path d="M14.8741 8.13285L15.1966 7.78C15.4138 7.54231 15.5248 7.22432 15.4944 6.89025C15.4419 6.32143 14.9143 5.83332 14.2537 5.83332H10.1357H9.44455L9.66077 5.17689C9.86396 4.56 10.1663 3.49148 10.1663 2.66666C10.1663 2.0835 9.91624 1.52628 9.57094 1.11054C9.3996 0.904244 9.21424 0.744567 9.04302 0.639664C8.86569 0.531016 8.73529 0.5 8.66632 0.5C8.27963 0.5 7.9695 0.666334 7.83301 0.753742V2.92731V3.03715L7.78698 3.13687L5.86697 7.29622L5.83301 7.3698V13.9383C6.24955 14.0875 6.70683 14.1667 6.99967 14.1667H13.119C13.6277 14.1667 14.0463 13.824 14.1414 13.3943L14.8741 8.13285ZM14.8741 8.13285L15.2121 8.47087M14.8741 8.13285L15.2121 8.47087M15.2121 8.47087C15.3947 8.65348 15.4997 8.90006 15.4997 9.16666C15.4997 9.54972 15.2809 9.88759 14.9515 10.0534L14.5056 10.2779L14.7294 10.7242C14.797 10.8588 14.833 11.008 14.833 11.1667C14.833 11.5501 14.6139 11.8881 14.2842 12.0541L13.838 12.2787M15.2121 8.47087L13.838 12.2787M13.838 12.2787L14.0622 12.725M13.838 12.2787L14.0622 12.725M14.0622 12.725C14.1625 12.9248 14.1937 13.1573 14.1415 13.3941L14.0622 12.725Z" fill="white" stroke="#959595"/>
</svg>
