<svg width="17" height="15" viewBox="0 0 17 15" fill="none" xmlns="http://www.w3.org/2000/svg">
<path d="M2.1831 9.82095C2.40517 9.40173 2.69346 9.03735 3.0473 8.73049L2.1831 9.82095ZM2.1831 9.82095C1.96374 10.2349 1.79866 10.7122 1.68172 11.2466L1.68169 11.2467C1.56323 11.7887 1.50611 12.391 1.50611 13.0503C1.50611 13.2339 1.51038 13.4277 1.51886 13.6315C0.821934 12.0126 0.5 10.7778 0.5 9.90014C0.5 8.69769 0.660491 7.7244 0.961154 6.96346C1.85534 4.74124 4.30257 3.5001 8.70001 3.5001H10.8H11.3V3.0001V0.600118C11.3 0.575355 11.3031 0.560408 11.3319 0.531627L11.3319 0.531577C11.3603 0.503217 11.375 0.5 11.4001 0.5C11.425 0.5 11.4398 0.503133 11.4684 0.531724L11.8219 0.17817M2.1831 9.82095L11.8219 0.17817M10.978 10.6223L11.3312 10.2684C11.3602 10.2973 11.3752 10.3004 11.3998 10.3004C11.4246 10.3004 11.4398 10.2972 11.4688 10.2683C11.4688 10.2683 11.4688 10.2683 11.4688 10.2683L16.2683 5.46858L16.6219 5.82212L16.2683 5.46857C16.2968 5.44012 16.3 5.42536 16.3 5.40037L10.978 10.6223ZM10.978 10.6223C11.0969 10.7409 11.2374 10.8004 11.3998 10.8004C11.5623 10.8004 11.703 10.7409 11.8219 10.6223L3.04738 8.73042C3.38627 8.43642 3.75337 8.19427 4.14831 8.0055C4.54629 7.81528 5.00263 7.67118 5.51161 7.5681C6.00963 7.4672 6.51109 7.39715 7.01599 7.35803C7.51613 7.31928 8.07781 7.30035 8.70001 7.30035H10.8H11.3V7.80035V10.2004C11.3 10.2255 11.3033 10.2404 11.3316 10.2687L10.978 10.6223ZM11.8219 0.17817L11.4684 0.531727M11.8219 0.17817L11.4684 0.531727M11.4684 0.531727L16.2679 5.3312M11.4684 0.531727L16.2679 5.3312M16.2679 5.3312C16.268 5.33128 16.2681 5.33136 16.2682 5.33144M16.2679 5.3312L16.2682 5.33144M16.2682 5.33144C16.2967 5.3601 16.3 5.37522 16.3 5.40028L16.2682 5.33144Z" fill="#F8F8F8" stroke="#959595"/>
</svg>
