<svg width="17" height="17" viewBox="0 0 17 17" fill="none" xmlns="http://www.w3.org/2000/svg">
<path d="M4.27091 12.7312L4.33268 12.1759H3.77398H1.72853C1.05003 12.1759 0.5 11.6259 0.5 10.9474V1.72853C0.5 1.05003 1.05003 0.5 1.72853 0.5H14.4045C15.083 0.5 15.633 1.05003 15.633 1.72853V10.9474C15.633 11.6259 15.083 12.1759 14.4045 12.1759H8.09589H7.90404L7.76143 12.3043L4.08428 15.6133L4.08426 15.6133C4.06809 15.6278 4.04648 15.6348 4.02489 15.6324C3.98308 15.6278 3.95298 15.5902 3.95751 15.5485C3.95751 15.5484 3.95752 15.5484 3.95752 15.5483L4.27091 12.7312Z" fill="white" stroke="#959595"/>
</svg>
