<svg width="8" height="10" viewBox="0 0 8 10" fill="none" xmlns="http://www.w3.org/2000/svg">
<path d="M4.00001 0C2.67665 0 1.60001 1.07664 1.60001 2.4C1.60001 3.72336 2.67665 4.8 4.00001 4.8C5.32337 4.8 6.40001 3.72336 6.40001 2.4C6.40001 1.07664 5.32337 0 4.00001 0Z" fill="#737373"/>
<path d="M6.98606 6.36783C6.329 5.70067 5.45794 5.33325 4.53333 5.33325H3.46667C2.54208 5.33325 1.671 5.70067 1.01394 6.36783C0.360089 7.03172 0 7.90806 0 8.83547C0 8.98275 0.119396 9.10214 0.266667 9.10214H7.73333C7.8806 9.10214 8 8.98275 8 8.83547C8 7.90806 7.63991 7.03172 6.98606 6.36783Z" fill="#737373"/>
</svg>
